%TF.GenerationSoftware,KiCad,Pcbnew,(5.1.8)-1*%
%TF.CreationDate,2021-02-16T03:44:48+08:00*%
%TF.ProjectId,VFD,5646442e-6b69-4636-9164-5f7063625858,rev?*%
%TF.SameCoordinates,Original*%
%TF.FileFunction,Copper,L2,Bot*%
%TF.FilePolarity,Positive*%
%FSLAX46Y46*%
G04 Gerber Fmt 4.6, Leading zero omitted, Abs format (unit mm)*
G04 Created by KiCad (PCBNEW (5.1.8)-1) date 2021-02-16 03:44:48*
%MOMM*%
%LPD*%
G01*
G04 APERTURE LIST*
%TA.AperFunction,ComponentPad*%
%ADD10O,1.000000X1.000000*%
%TD*%
%TA.AperFunction,ComponentPad*%
%ADD11R,1.000000X1.000000*%
%TD*%
%TA.AperFunction,ViaPad*%
%ADD12C,0.500000*%
%TD*%
%TA.AperFunction,Conductor*%
%ADD13C,0.508000*%
%TD*%
%TA.AperFunction,Conductor*%
%ADD14C,0.254000*%
%TD*%
%TA.AperFunction,Conductor*%
%ADD15C,0.100000*%
%TD*%
G04 APERTURE END LIST*
D10*
%TO.P,J1,8*%
%TO.N,Net-(J1-Pad8)*%
X121636000Y-99096000D03*
%TO.P,J1,7*%
%TO.N,Net-(J1-Pad7)*%
X120366000Y-99096000D03*
%TO.P,J1,6*%
%TO.N,Net-(J1-Pad6)*%
X119096000Y-99096000D03*
%TO.P,J1,5*%
%TO.N,Net-(J1-Pad5)*%
X117826000Y-99096000D03*
%TO.P,J1,4*%
%TO.N,Net-(J1-Pad4)*%
X116556000Y-99096000D03*
%TO.P,J1,3*%
%TO.N,GND*%
X115286000Y-99096000D03*
%TO.P,J1,2*%
%TO.N,EN*%
X114016000Y-99096000D03*
D11*
%TO.P,J1,1*%
%TO.N,+5V*%
X112746000Y-99096000D03*
%TD*%
D12*
%TO.N,GND*%
X237594000Y-93730000D03*
X237594000Y-94730000D03*
X237594000Y-95730000D03*
X237594000Y-96730000D03*
X237594000Y-97730000D03*
X237594000Y-98730000D03*
X237594000Y-99730000D03*
X237594000Y-100730000D03*
X237594000Y-101730000D03*
X237594000Y-102730000D03*
X237594000Y-103730000D03*
X237594000Y-104730000D03*
X237594000Y-105730000D03*
X237594000Y-106730000D03*
X237594000Y-107730000D03*
X237594000Y-108730000D03*
X237594000Y-109730000D03*
X237594000Y-110730000D03*
X237594000Y-111730000D03*
X237594000Y-112730000D03*
X237594000Y-113730000D03*
X237594000Y-114730000D03*
X237594000Y-115730000D03*
X74646000Y-93762000D03*
X74646000Y-94762000D03*
X74646000Y-95762000D03*
X74646000Y-96762000D03*
X74646000Y-97762000D03*
X74646000Y-98762000D03*
X74646000Y-99762000D03*
X74646000Y-100762000D03*
X74646000Y-101762000D03*
X74646000Y-102762000D03*
X74646000Y-103762000D03*
X74646000Y-104762000D03*
X74646000Y-105762000D03*
X74646000Y-106762000D03*
X74646000Y-107762000D03*
X74646000Y-108762000D03*
X74646000Y-109762000D03*
X74646000Y-110762000D03*
X74646000Y-111762000D03*
X74646000Y-112762000D03*
X74646000Y-113762000D03*
X74646000Y-114762000D03*
X74646000Y-115762000D03*
X74646000Y-116762000D03*
X86584000Y-96048000D03*
X99538000Y-100874000D03*
X109698000Y-110526000D03*
X95474000Y-105954000D03*
X134336000Y-112304000D03*
X170912000Y-104176000D03*
X166086000Y-109256000D03*
X110650000Y-97150000D03*
X237594000Y-116622000D03*
%TO.N,+5V*%
X91089000Y-107810000D03*
X104849000Y-113574000D03*
%TO.N,Net-(C4-Pad1)*%
X160498000Y-108647000D03*
X164081000Y-105435000D03*
%TO.N,Net-(J1-Pad8)*%
X95660000Y-95850000D03*
%TO.N,Net-(J1-Pad7)*%
X97660000Y-95850000D03*
%TO.N,Net-(J1-Pad6)*%
X99660000Y-95860000D03*
%TO.N,Net-(J1-Pad5)*%
X101650000Y-95850000D03*
%TO.N,Net-(J1-Pad4)*%
X105670000Y-95850000D03*
%TO.N,Net-(R1-Pad2)*%
X163038000Y-108748000D03*
X167588500Y-112304000D03*
%TO.N,/F2*%
X174976000Y-109002000D03*
X170139000Y-107975000D03*
%TD*%
D13*
%TO.N,+5V*%
X94536000Y-107810000D02*
X91089000Y-107810000D01*
X100300000Y-113574000D02*
X94536000Y-107810000D01*
X104849000Y-113574000D02*
X100300000Y-113574000D01*
D14*
%TO.N,Net-(C4-Pad1)*%
X164081000Y-106689000D02*
X162123000Y-108647000D01*
X164081000Y-105435000D02*
X164081000Y-106689000D01*
X162123000Y-108647000D02*
X160498000Y-108647000D01*
%TO.N,Net-(J1-Pad8)*%
X95660000Y-95850000D02*
X95660000Y-93560000D01*
X95660000Y-93560000D02*
X96155190Y-93064810D01*
X96155190Y-93064810D02*
X121094810Y-93064810D01*
X121636000Y-93606000D02*
X121636000Y-99096000D01*
X121094810Y-93064810D02*
X121636000Y-93606000D01*
%TO.N,Net-(J1-Pad7)*%
X120366000Y-99096000D02*
X120366000Y-93852620D01*
X120366000Y-93852620D02*
X120010000Y-93496620D01*
X120010000Y-93496620D02*
X98153380Y-93496620D01*
X97660000Y-93990000D02*
X97660000Y-95850000D01*
X98153380Y-93496620D02*
X97660000Y-93990000D01*
%TO.N,Net-(J1-Pad6)*%
X99660000Y-95860000D02*
X99660000Y-94668430D01*
X99660000Y-94668430D02*
X100400000Y-93928430D01*
X100400000Y-93928430D02*
X118558430Y-93928430D01*
X119096000Y-94466000D02*
X119096000Y-99096000D01*
X118558430Y-93928430D02*
X119096000Y-94466000D01*
%TO.N,Net-(J1-Pad5)*%
X117826000Y-99096000D02*
X117826000Y-94786240D01*
X117826000Y-94786240D02*
X117400000Y-94360240D01*
X117400000Y-94360240D02*
X102169760Y-94360240D01*
X101650000Y-94880000D02*
X101650000Y-95850000D01*
X102169760Y-94360240D02*
X101650000Y-94880000D01*
%TO.N,Net-(J1-Pad4)*%
X105670000Y-95850000D02*
X115930000Y-95850000D01*
X116556000Y-96476000D02*
X116556000Y-99096000D01*
X115930000Y-95850000D02*
X116556000Y-96476000D01*
%TO.N,Net-(R1-Pad2)*%
X167588500Y-112304000D02*
X166594000Y-112304000D01*
X166594000Y-112304000D02*
X164562000Y-110272000D01*
X164562000Y-110272000D02*
X163038000Y-108748000D01*
D13*
%TO.N,/F2*%
X171166000Y-109002000D02*
X174976000Y-109002000D01*
X170139000Y-107975000D02*
X171166000Y-109002000D01*
%TD*%
D14*
%TO.N,GND*%
X94909027Y-93410622D02*
X94894314Y-93560000D01*
X94898001Y-93597433D01*
X94898000Y-95397455D01*
X94875723Y-95430795D01*
X94809010Y-95591855D01*
X94775000Y-95762835D01*
X94775000Y-95937165D01*
X94809010Y-96108145D01*
X94875723Y-96269205D01*
X94972576Y-96414155D01*
X95095845Y-96537424D01*
X95240795Y-96634277D01*
X95401855Y-96700990D01*
X95572835Y-96735000D01*
X95747165Y-96735000D01*
X95918145Y-96700990D01*
X96079205Y-96634277D01*
X96224155Y-96537424D01*
X96347424Y-96414155D01*
X96444277Y-96269205D01*
X96510990Y-96108145D01*
X96545000Y-95937165D01*
X96545000Y-95762835D01*
X96510990Y-95591855D01*
X96444277Y-95430795D01*
X96422000Y-95397455D01*
X96422000Y-93875630D01*
X96470820Y-93826810D01*
X96913216Y-93826810D01*
X96909026Y-93840623D01*
X96900378Y-93928430D01*
X96894314Y-93990000D01*
X96898000Y-94027424D01*
X96898001Y-95397454D01*
X96875723Y-95430795D01*
X96809010Y-95591855D01*
X96775000Y-95762835D01*
X96775000Y-95937165D01*
X96809010Y-96108145D01*
X96875723Y-96269205D01*
X96972576Y-96414155D01*
X97095845Y-96537424D01*
X97240795Y-96634277D01*
X97401855Y-96700990D01*
X97572835Y-96735000D01*
X97747165Y-96735000D01*
X97918145Y-96700990D01*
X98079205Y-96634277D01*
X98224155Y-96537424D01*
X98347424Y-96414155D01*
X98444277Y-96269205D01*
X98510990Y-96108145D01*
X98545000Y-95937165D01*
X98545000Y-95762835D01*
X98510990Y-95591855D01*
X98444277Y-95430795D01*
X98422000Y-95397455D01*
X98422000Y-94305630D01*
X98469009Y-94258620D01*
X99015026Y-94258620D01*
X98952599Y-94375415D01*
X98909027Y-94519052D01*
X98894314Y-94668430D01*
X98898001Y-94705863D01*
X98898000Y-95407455D01*
X98875723Y-95440795D01*
X98809010Y-95601855D01*
X98775000Y-95772835D01*
X98775000Y-95947165D01*
X98809010Y-96118145D01*
X98875723Y-96279205D01*
X98972576Y-96424155D01*
X99095845Y-96547424D01*
X99240795Y-96644277D01*
X99401855Y-96710990D01*
X99572835Y-96745000D01*
X99747165Y-96745000D01*
X99918145Y-96710990D01*
X100079205Y-96644277D01*
X100224155Y-96547424D01*
X100347424Y-96424155D01*
X100444277Y-96279205D01*
X100510990Y-96118145D01*
X100545000Y-95947165D01*
X100545000Y-95772835D01*
X100510990Y-95601855D01*
X100444277Y-95440795D01*
X100422000Y-95407455D01*
X100422000Y-94984060D01*
X100715631Y-94690430D01*
X100911218Y-94690430D01*
X100899026Y-94730623D01*
X100888000Y-94842574D01*
X100884314Y-94880000D01*
X100888000Y-94917424D01*
X100888001Y-95397454D01*
X100865723Y-95430795D01*
X100799010Y-95591855D01*
X100765000Y-95762835D01*
X100765000Y-95937165D01*
X100799010Y-96108145D01*
X100865723Y-96269205D01*
X100962576Y-96414155D01*
X101085845Y-96537424D01*
X101230795Y-96634277D01*
X101391855Y-96700990D01*
X101562835Y-96735000D01*
X101737165Y-96735000D01*
X101908145Y-96700990D01*
X102069205Y-96634277D01*
X102214155Y-96537424D01*
X102337424Y-96414155D01*
X102434277Y-96269205D01*
X102500990Y-96108145D01*
X102535000Y-95937165D01*
X102535000Y-95762835D01*
X102500990Y-95591855D01*
X102434277Y-95430795D01*
X102412000Y-95397455D01*
X102412000Y-95195630D01*
X102485390Y-95122240D01*
X105166212Y-95122240D01*
X105105845Y-95162576D01*
X104982576Y-95285845D01*
X104885723Y-95430795D01*
X104819010Y-95591855D01*
X104785000Y-95762835D01*
X104785000Y-95937165D01*
X104819010Y-96108145D01*
X104885723Y-96269205D01*
X104982576Y-96414155D01*
X105105845Y-96537424D01*
X105250795Y-96634277D01*
X105411855Y-96700990D01*
X105582835Y-96735000D01*
X105757165Y-96735000D01*
X105928145Y-96700990D01*
X106089205Y-96634277D01*
X106122545Y-96612000D01*
X115614370Y-96612000D01*
X115794000Y-96791630D01*
X115794001Y-98085688D01*
X115642864Y-98018554D01*
X115587874Y-98001881D01*
X115413000Y-98128046D01*
X115413000Y-98969000D01*
X115424026Y-98969000D01*
X115421000Y-98984212D01*
X115421000Y-99207788D01*
X115424026Y-99223000D01*
X115413000Y-99223000D01*
X115413000Y-100063954D01*
X115587874Y-100190119D01*
X115642864Y-100173446D01*
X115846206Y-100083123D01*
X115916342Y-100033647D01*
X116018376Y-100101824D01*
X116224933Y-100187383D01*
X116444212Y-100231000D01*
X116667788Y-100231000D01*
X116887067Y-100187383D01*
X117093624Y-100101824D01*
X117191000Y-100036759D01*
X117288376Y-100101824D01*
X117494933Y-100187383D01*
X117714212Y-100231000D01*
X117937788Y-100231000D01*
X118157067Y-100187383D01*
X118363624Y-100101824D01*
X118461000Y-100036759D01*
X118558376Y-100101824D01*
X118764933Y-100187383D01*
X118984212Y-100231000D01*
X119207788Y-100231000D01*
X119427067Y-100187383D01*
X119633624Y-100101824D01*
X119731000Y-100036759D01*
X119828376Y-100101824D01*
X120034933Y-100187383D01*
X120254212Y-100231000D01*
X120477788Y-100231000D01*
X120697067Y-100187383D01*
X120903624Y-100101824D01*
X121001000Y-100036759D01*
X121098376Y-100101824D01*
X121304933Y-100187383D01*
X121524212Y-100231000D01*
X121747788Y-100231000D01*
X121967067Y-100187383D01*
X122173624Y-100101824D01*
X122359520Y-99977612D01*
X122517612Y-99819520D01*
X122641824Y-99633624D01*
X122727383Y-99427067D01*
X122771000Y-99207788D01*
X122771000Y-98984212D01*
X122727383Y-98764933D01*
X122641824Y-98558376D01*
X122517612Y-98372480D01*
X122398000Y-98252868D01*
X122398000Y-93643422D01*
X122401686Y-93605999D01*
X122397609Y-93564608D01*
X122386974Y-93456622D01*
X122368281Y-93395000D01*
X237975001Y-93395000D01*
X237975000Y-117025000D01*
X74345000Y-117025000D01*
X74345000Y-107810000D01*
X90195699Y-107810000D01*
X90204000Y-107894279D01*
X90204000Y-107897165D01*
X90204563Y-107899996D01*
X90212864Y-107984274D01*
X90237447Y-108065315D01*
X90238010Y-108068145D01*
X90239114Y-108070810D01*
X90263697Y-108151851D01*
X90303619Y-108226540D01*
X90304723Y-108229205D01*
X90306326Y-108231604D01*
X90346247Y-108306291D01*
X90399974Y-108371757D01*
X90401576Y-108374155D01*
X90403616Y-108376195D01*
X90457341Y-108441659D01*
X90522805Y-108495384D01*
X90524845Y-108497424D01*
X90527243Y-108499026D01*
X90592709Y-108552753D01*
X90667396Y-108592674D01*
X90669795Y-108594277D01*
X90672460Y-108595381D01*
X90747149Y-108635303D01*
X90828190Y-108659886D01*
X90830855Y-108660990D01*
X90833685Y-108661553D01*
X90914726Y-108686136D01*
X90999004Y-108694437D01*
X91001835Y-108695000D01*
X91004721Y-108695000D01*
X91045333Y-108699000D01*
X94167765Y-108699000D01*
X99640506Y-114171742D01*
X99668341Y-114205659D01*
X99803709Y-114316753D01*
X99958149Y-114399303D01*
X100042829Y-114424990D01*
X100125725Y-114450136D01*
X100142325Y-114451771D01*
X100256333Y-114463000D01*
X100256340Y-114463000D01*
X100300000Y-114467300D01*
X100343660Y-114463000D01*
X104892667Y-114463000D01*
X104933279Y-114459000D01*
X104936165Y-114459000D01*
X104938996Y-114458437D01*
X105023274Y-114450136D01*
X105104315Y-114425553D01*
X105107145Y-114424990D01*
X105109810Y-114423886D01*
X105190851Y-114399303D01*
X105265540Y-114359381D01*
X105268205Y-114358277D01*
X105270604Y-114356674D01*
X105345291Y-114316753D01*
X105410757Y-114263026D01*
X105413155Y-114261424D01*
X105415195Y-114259384D01*
X105480659Y-114205659D01*
X105534384Y-114140195D01*
X105536424Y-114138155D01*
X105538026Y-114135757D01*
X105591753Y-114070291D01*
X105631674Y-113995604D01*
X105633277Y-113993205D01*
X105634381Y-113990540D01*
X105674303Y-113915851D01*
X105698886Y-113834810D01*
X105699990Y-113832145D01*
X105700553Y-113829315D01*
X105725136Y-113748274D01*
X105733437Y-113663996D01*
X105734000Y-113661165D01*
X105734000Y-113658279D01*
X105742301Y-113574000D01*
X105734000Y-113489721D01*
X105734000Y-113486835D01*
X105733437Y-113484004D01*
X105725136Y-113399726D01*
X105700553Y-113318685D01*
X105699990Y-113315855D01*
X105698886Y-113313190D01*
X105674303Y-113232149D01*
X105634381Y-113157460D01*
X105633277Y-113154795D01*
X105631674Y-113152396D01*
X105591753Y-113077709D01*
X105538026Y-113012243D01*
X105536424Y-113009845D01*
X105534384Y-113007805D01*
X105480659Y-112942341D01*
X105415195Y-112888616D01*
X105413155Y-112886576D01*
X105410757Y-112884974D01*
X105345291Y-112831247D01*
X105270604Y-112791326D01*
X105268205Y-112789723D01*
X105265540Y-112788619D01*
X105190851Y-112748697D01*
X105109810Y-112724114D01*
X105107145Y-112723010D01*
X105104315Y-112722447D01*
X105023274Y-112697864D01*
X104938996Y-112689563D01*
X104936165Y-112689000D01*
X104933279Y-112689000D01*
X104892667Y-112685000D01*
X100668236Y-112685000D01*
X96543071Y-108559835D01*
X159613000Y-108559835D01*
X159613000Y-108734165D01*
X159647010Y-108905145D01*
X159713723Y-109066205D01*
X159810576Y-109211155D01*
X159933845Y-109334424D01*
X160078795Y-109431277D01*
X160239855Y-109497990D01*
X160410835Y-109532000D01*
X160585165Y-109532000D01*
X160756145Y-109497990D01*
X160917205Y-109431277D01*
X160950545Y-109409000D01*
X162085577Y-109409000D01*
X162123000Y-109412686D01*
X162160423Y-109409000D01*
X162160426Y-109409000D01*
X162272378Y-109397974D01*
X162398221Y-109359800D01*
X162473845Y-109435424D01*
X162618795Y-109532277D01*
X162779855Y-109598990D01*
X162819182Y-109606813D01*
X164049648Y-110837279D01*
X164049653Y-110837283D01*
X166028721Y-112816352D01*
X166052578Y-112845422D01*
X166081648Y-112869279D01*
X166168607Y-112940645D01*
X166235237Y-112976259D01*
X166300985Y-113011402D01*
X166444622Y-113054974D01*
X166556574Y-113066000D01*
X166556577Y-113066000D01*
X166594000Y-113069686D01*
X166631423Y-113066000D01*
X167135955Y-113066000D01*
X167169295Y-113088277D01*
X167330355Y-113154990D01*
X167501335Y-113189000D01*
X167675665Y-113189000D01*
X167846645Y-113154990D01*
X168007705Y-113088277D01*
X168152655Y-112991424D01*
X168275924Y-112868155D01*
X168372777Y-112723205D01*
X168439490Y-112562145D01*
X168473500Y-112391165D01*
X168473500Y-112216835D01*
X168439490Y-112045855D01*
X168372777Y-111884795D01*
X168275924Y-111739845D01*
X168152655Y-111616576D01*
X168007705Y-111519723D01*
X167846645Y-111453010D01*
X167675665Y-111419000D01*
X167501335Y-111419000D01*
X167330355Y-111453010D01*
X167169295Y-111519723D01*
X167135955Y-111542000D01*
X166909631Y-111542000D01*
X165127283Y-109759653D01*
X165127279Y-109759648D01*
X163896813Y-108529182D01*
X163888990Y-108489855D01*
X163822277Y-108328795D01*
X163725424Y-108183845D01*
X163694605Y-108153026D01*
X163872631Y-107975000D01*
X169245700Y-107975000D01*
X169254000Y-108059274D01*
X169254000Y-108062165D01*
X169254564Y-108065001D01*
X169262864Y-108149274D01*
X169287446Y-108230312D01*
X169288010Y-108233145D01*
X169289115Y-108235814D01*
X169313698Y-108316852D01*
X169353617Y-108391534D01*
X169354723Y-108394205D01*
X169356329Y-108396609D01*
X169396248Y-108471291D01*
X169449970Y-108536752D01*
X169451576Y-108539155D01*
X169453620Y-108541199D01*
X169479505Y-108572740D01*
X170506501Y-109599736D01*
X170534341Y-109633659D01*
X170669709Y-109744753D01*
X170824149Y-109827303D01*
X170887787Y-109846607D01*
X170991724Y-109878136D01*
X171024924Y-109881406D01*
X171122333Y-109891000D01*
X171122339Y-109891000D01*
X171165999Y-109895300D01*
X171209659Y-109891000D01*
X175019667Y-109891000D01*
X175060279Y-109887000D01*
X175063165Y-109887000D01*
X175065996Y-109886437D01*
X175150274Y-109878136D01*
X175231315Y-109853553D01*
X175234145Y-109852990D01*
X175236810Y-109851886D01*
X175317851Y-109827303D01*
X175392540Y-109787381D01*
X175395205Y-109786277D01*
X175397604Y-109784674D01*
X175472291Y-109744753D01*
X175537757Y-109691026D01*
X175540155Y-109689424D01*
X175542195Y-109687384D01*
X175607659Y-109633659D01*
X175661384Y-109568195D01*
X175663424Y-109566155D01*
X175665026Y-109563757D01*
X175718753Y-109498291D01*
X175758674Y-109423604D01*
X175760277Y-109421205D01*
X175761381Y-109418540D01*
X175801303Y-109343851D01*
X175825886Y-109262810D01*
X175826990Y-109260145D01*
X175827553Y-109257315D01*
X175852136Y-109176274D01*
X175860437Y-109091996D01*
X175861000Y-109089165D01*
X175861000Y-109086279D01*
X175869301Y-109002000D01*
X175861000Y-108917721D01*
X175861000Y-108914835D01*
X175860437Y-108912004D01*
X175852136Y-108827726D01*
X175827553Y-108746685D01*
X175826990Y-108743855D01*
X175825886Y-108741190D01*
X175801303Y-108660149D01*
X175761381Y-108585460D01*
X175760277Y-108582795D01*
X175758674Y-108580396D01*
X175718753Y-108505709D01*
X175665026Y-108440243D01*
X175663424Y-108437845D01*
X175661384Y-108435805D01*
X175607659Y-108370341D01*
X175542195Y-108316616D01*
X175540155Y-108314576D01*
X175537757Y-108312974D01*
X175472291Y-108259247D01*
X175397604Y-108219326D01*
X175395205Y-108217723D01*
X175392540Y-108216619D01*
X175317851Y-108176697D01*
X175236810Y-108152114D01*
X175234145Y-108151010D01*
X175231315Y-108150447D01*
X175150274Y-108125864D01*
X175065996Y-108117563D01*
X175063165Y-108117000D01*
X175060279Y-108117000D01*
X175019667Y-108113000D01*
X171534235Y-108113000D01*
X170736740Y-107315505D01*
X170705199Y-107289620D01*
X170703155Y-107287576D01*
X170700752Y-107285970D01*
X170635291Y-107232248D01*
X170560609Y-107192329D01*
X170558205Y-107190723D01*
X170555534Y-107189617D01*
X170480852Y-107149698D01*
X170399814Y-107125115D01*
X170397145Y-107124010D01*
X170394312Y-107123446D01*
X170313274Y-107098864D01*
X170229001Y-107090564D01*
X170226165Y-107090000D01*
X170223274Y-107090000D01*
X170139000Y-107081700D01*
X170054726Y-107090000D01*
X170051835Y-107090000D01*
X170048999Y-107090564D01*
X169964726Y-107098864D01*
X169883688Y-107123446D01*
X169880855Y-107124010D01*
X169878186Y-107125115D01*
X169797148Y-107149698D01*
X169722466Y-107189617D01*
X169719795Y-107190723D01*
X169717391Y-107192329D01*
X169642709Y-107232248D01*
X169577247Y-107285971D01*
X169574845Y-107287576D01*
X169572803Y-107289618D01*
X169507341Y-107343341D01*
X169453618Y-107408803D01*
X169451576Y-107410845D01*
X169449971Y-107413247D01*
X169396248Y-107478709D01*
X169356329Y-107553391D01*
X169354723Y-107555795D01*
X169353617Y-107558466D01*
X169313698Y-107633148D01*
X169289115Y-107714186D01*
X169288010Y-107716855D01*
X169287446Y-107719688D01*
X169262864Y-107800726D01*
X169254564Y-107884999D01*
X169254000Y-107887835D01*
X169254000Y-107890726D01*
X169245700Y-107975000D01*
X163872631Y-107975000D01*
X164593352Y-107254279D01*
X164622422Y-107230422D01*
X164717645Y-107114392D01*
X164788402Y-106982015D01*
X164831974Y-106838378D01*
X164843000Y-106726426D01*
X164843000Y-106726424D01*
X164846686Y-106689001D01*
X164843000Y-106651578D01*
X164843000Y-105887545D01*
X164865277Y-105854205D01*
X164931990Y-105693145D01*
X164966000Y-105522165D01*
X164966000Y-105347835D01*
X164931990Y-105176855D01*
X164865277Y-105015795D01*
X164768424Y-104870845D01*
X164645155Y-104747576D01*
X164500205Y-104650723D01*
X164339145Y-104584010D01*
X164168165Y-104550000D01*
X163993835Y-104550000D01*
X163822855Y-104584010D01*
X163661795Y-104650723D01*
X163516845Y-104747576D01*
X163393576Y-104870845D01*
X163296723Y-105015795D01*
X163230010Y-105176855D01*
X163196000Y-105347835D01*
X163196000Y-105522165D01*
X163230010Y-105693145D01*
X163296723Y-105854205D01*
X163319000Y-105887545D01*
X163319001Y-106373368D01*
X161807370Y-107885000D01*
X160950545Y-107885000D01*
X160917205Y-107862723D01*
X160756145Y-107796010D01*
X160585165Y-107762000D01*
X160410835Y-107762000D01*
X160239855Y-107796010D01*
X160078795Y-107862723D01*
X159933845Y-107959576D01*
X159810576Y-108082845D01*
X159713723Y-108227795D01*
X159647010Y-108388855D01*
X159613000Y-108559835D01*
X96543071Y-108559835D01*
X95195499Y-107212264D01*
X95167659Y-107178341D01*
X95032291Y-107067247D01*
X94877851Y-106984697D01*
X94710274Y-106933864D01*
X94579667Y-106921000D01*
X94579660Y-106921000D01*
X94536000Y-106916700D01*
X94492340Y-106921000D01*
X91045333Y-106921000D01*
X91004721Y-106925000D01*
X91001835Y-106925000D01*
X90999004Y-106925563D01*
X90914726Y-106933864D01*
X90833685Y-106958447D01*
X90830855Y-106959010D01*
X90828190Y-106960114D01*
X90747149Y-106984697D01*
X90672460Y-107024619D01*
X90669795Y-107025723D01*
X90667396Y-107027326D01*
X90592709Y-107067247D01*
X90527243Y-107120974D01*
X90524845Y-107122576D01*
X90522805Y-107124616D01*
X90457341Y-107178341D01*
X90403616Y-107243805D01*
X90401576Y-107245845D01*
X90399974Y-107248243D01*
X90346247Y-107313709D01*
X90306326Y-107388396D01*
X90304723Y-107390795D01*
X90303619Y-107393460D01*
X90263697Y-107468149D01*
X90239114Y-107549190D01*
X90238010Y-107551855D01*
X90237447Y-107554685D01*
X90212864Y-107635726D01*
X90204563Y-107720004D01*
X90204000Y-107722835D01*
X90204000Y-107725721D01*
X90195699Y-107810000D01*
X74345000Y-107810000D01*
X74345000Y-98596000D01*
X111607928Y-98596000D01*
X111607928Y-99596000D01*
X111620188Y-99720482D01*
X111656498Y-99840180D01*
X111715463Y-99950494D01*
X111794815Y-100047185D01*
X111891506Y-100126537D01*
X112001820Y-100185502D01*
X112121518Y-100221812D01*
X112246000Y-100234072D01*
X113246000Y-100234072D01*
X113370482Y-100221812D01*
X113490180Y-100185502D01*
X113573226Y-100141112D01*
X113684933Y-100187383D01*
X113904212Y-100231000D01*
X114127788Y-100231000D01*
X114347067Y-100187383D01*
X114553624Y-100101824D01*
X114655658Y-100033647D01*
X114725794Y-100083123D01*
X114929136Y-100173446D01*
X114984126Y-100190119D01*
X115159000Y-100063954D01*
X115159000Y-99223000D01*
X115147974Y-99223000D01*
X115151000Y-99207788D01*
X115151000Y-98984212D01*
X115147974Y-98969000D01*
X115159000Y-98969000D01*
X115159000Y-98128046D01*
X114984126Y-98001881D01*
X114929136Y-98018554D01*
X114725794Y-98108877D01*
X114655658Y-98158353D01*
X114553624Y-98090176D01*
X114347067Y-98004617D01*
X114127788Y-97961000D01*
X113904212Y-97961000D01*
X113684933Y-98004617D01*
X113573226Y-98050888D01*
X113490180Y-98006498D01*
X113370482Y-97970188D01*
X113246000Y-97957928D01*
X112246000Y-97957928D01*
X112121518Y-97970188D01*
X112001820Y-98006498D01*
X111891506Y-98065463D01*
X111794815Y-98144815D01*
X111715463Y-98241506D01*
X111656498Y-98351820D01*
X111620188Y-98471518D01*
X111607928Y-98596000D01*
X74345000Y-98596000D01*
X74345000Y-93395000D01*
X94913766Y-93395000D01*
X94909027Y-93410622D01*
%TA.AperFunction,Conductor*%
D15*
G36*
X94909027Y-93410622D02*
G01*
X94894314Y-93560000D01*
X94898001Y-93597433D01*
X94898000Y-95397455D01*
X94875723Y-95430795D01*
X94809010Y-95591855D01*
X94775000Y-95762835D01*
X94775000Y-95937165D01*
X94809010Y-96108145D01*
X94875723Y-96269205D01*
X94972576Y-96414155D01*
X95095845Y-96537424D01*
X95240795Y-96634277D01*
X95401855Y-96700990D01*
X95572835Y-96735000D01*
X95747165Y-96735000D01*
X95918145Y-96700990D01*
X96079205Y-96634277D01*
X96224155Y-96537424D01*
X96347424Y-96414155D01*
X96444277Y-96269205D01*
X96510990Y-96108145D01*
X96545000Y-95937165D01*
X96545000Y-95762835D01*
X96510990Y-95591855D01*
X96444277Y-95430795D01*
X96422000Y-95397455D01*
X96422000Y-93875630D01*
X96470820Y-93826810D01*
X96913216Y-93826810D01*
X96909026Y-93840623D01*
X96900378Y-93928430D01*
X96894314Y-93990000D01*
X96898000Y-94027424D01*
X96898001Y-95397454D01*
X96875723Y-95430795D01*
X96809010Y-95591855D01*
X96775000Y-95762835D01*
X96775000Y-95937165D01*
X96809010Y-96108145D01*
X96875723Y-96269205D01*
X96972576Y-96414155D01*
X97095845Y-96537424D01*
X97240795Y-96634277D01*
X97401855Y-96700990D01*
X97572835Y-96735000D01*
X97747165Y-96735000D01*
X97918145Y-96700990D01*
X98079205Y-96634277D01*
X98224155Y-96537424D01*
X98347424Y-96414155D01*
X98444277Y-96269205D01*
X98510990Y-96108145D01*
X98545000Y-95937165D01*
X98545000Y-95762835D01*
X98510990Y-95591855D01*
X98444277Y-95430795D01*
X98422000Y-95397455D01*
X98422000Y-94305630D01*
X98469009Y-94258620D01*
X99015026Y-94258620D01*
X98952599Y-94375415D01*
X98909027Y-94519052D01*
X98894314Y-94668430D01*
X98898001Y-94705863D01*
X98898000Y-95407455D01*
X98875723Y-95440795D01*
X98809010Y-95601855D01*
X98775000Y-95772835D01*
X98775000Y-95947165D01*
X98809010Y-96118145D01*
X98875723Y-96279205D01*
X98972576Y-96424155D01*
X99095845Y-96547424D01*
X99240795Y-96644277D01*
X99401855Y-96710990D01*
X99572835Y-96745000D01*
X99747165Y-96745000D01*
X99918145Y-96710990D01*
X100079205Y-96644277D01*
X100224155Y-96547424D01*
X100347424Y-96424155D01*
X100444277Y-96279205D01*
X100510990Y-96118145D01*
X100545000Y-95947165D01*
X100545000Y-95772835D01*
X100510990Y-95601855D01*
X100444277Y-95440795D01*
X100422000Y-95407455D01*
X100422000Y-94984060D01*
X100715631Y-94690430D01*
X100911218Y-94690430D01*
X100899026Y-94730623D01*
X100888000Y-94842574D01*
X100884314Y-94880000D01*
X100888000Y-94917424D01*
X100888001Y-95397454D01*
X100865723Y-95430795D01*
X100799010Y-95591855D01*
X100765000Y-95762835D01*
X100765000Y-95937165D01*
X100799010Y-96108145D01*
X100865723Y-96269205D01*
X100962576Y-96414155D01*
X101085845Y-96537424D01*
X101230795Y-96634277D01*
X101391855Y-96700990D01*
X101562835Y-96735000D01*
X101737165Y-96735000D01*
X101908145Y-96700990D01*
X102069205Y-96634277D01*
X102214155Y-96537424D01*
X102337424Y-96414155D01*
X102434277Y-96269205D01*
X102500990Y-96108145D01*
X102535000Y-95937165D01*
X102535000Y-95762835D01*
X102500990Y-95591855D01*
X102434277Y-95430795D01*
X102412000Y-95397455D01*
X102412000Y-95195630D01*
X102485390Y-95122240D01*
X105166212Y-95122240D01*
X105105845Y-95162576D01*
X104982576Y-95285845D01*
X104885723Y-95430795D01*
X104819010Y-95591855D01*
X104785000Y-95762835D01*
X104785000Y-95937165D01*
X104819010Y-96108145D01*
X104885723Y-96269205D01*
X104982576Y-96414155D01*
X105105845Y-96537424D01*
X105250795Y-96634277D01*
X105411855Y-96700990D01*
X105582835Y-96735000D01*
X105757165Y-96735000D01*
X105928145Y-96700990D01*
X106089205Y-96634277D01*
X106122545Y-96612000D01*
X115614370Y-96612000D01*
X115794000Y-96791630D01*
X115794001Y-98085688D01*
X115642864Y-98018554D01*
X115587874Y-98001881D01*
X115413000Y-98128046D01*
X115413000Y-98969000D01*
X115424026Y-98969000D01*
X115421000Y-98984212D01*
X115421000Y-99207788D01*
X115424026Y-99223000D01*
X115413000Y-99223000D01*
X115413000Y-100063954D01*
X115587874Y-100190119D01*
X115642864Y-100173446D01*
X115846206Y-100083123D01*
X115916342Y-100033647D01*
X116018376Y-100101824D01*
X116224933Y-100187383D01*
X116444212Y-100231000D01*
X116667788Y-100231000D01*
X116887067Y-100187383D01*
X117093624Y-100101824D01*
X117191000Y-100036759D01*
X117288376Y-100101824D01*
X117494933Y-100187383D01*
X117714212Y-100231000D01*
X117937788Y-100231000D01*
X118157067Y-100187383D01*
X118363624Y-100101824D01*
X118461000Y-100036759D01*
X118558376Y-100101824D01*
X118764933Y-100187383D01*
X118984212Y-100231000D01*
X119207788Y-100231000D01*
X119427067Y-100187383D01*
X119633624Y-100101824D01*
X119731000Y-100036759D01*
X119828376Y-100101824D01*
X120034933Y-100187383D01*
X120254212Y-100231000D01*
X120477788Y-100231000D01*
X120697067Y-100187383D01*
X120903624Y-100101824D01*
X121001000Y-100036759D01*
X121098376Y-100101824D01*
X121304933Y-100187383D01*
X121524212Y-100231000D01*
X121747788Y-100231000D01*
X121967067Y-100187383D01*
X122173624Y-100101824D01*
X122359520Y-99977612D01*
X122517612Y-99819520D01*
X122641824Y-99633624D01*
X122727383Y-99427067D01*
X122771000Y-99207788D01*
X122771000Y-98984212D01*
X122727383Y-98764933D01*
X122641824Y-98558376D01*
X122517612Y-98372480D01*
X122398000Y-98252868D01*
X122398000Y-93643422D01*
X122401686Y-93605999D01*
X122397609Y-93564608D01*
X122386974Y-93456622D01*
X122368281Y-93395000D01*
X237975001Y-93395000D01*
X237975000Y-117025000D01*
X74345000Y-117025000D01*
X74345000Y-107810000D01*
X90195699Y-107810000D01*
X90204000Y-107894279D01*
X90204000Y-107897165D01*
X90204563Y-107899996D01*
X90212864Y-107984274D01*
X90237447Y-108065315D01*
X90238010Y-108068145D01*
X90239114Y-108070810D01*
X90263697Y-108151851D01*
X90303619Y-108226540D01*
X90304723Y-108229205D01*
X90306326Y-108231604D01*
X90346247Y-108306291D01*
X90399974Y-108371757D01*
X90401576Y-108374155D01*
X90403616Y-108376195D01*
X90457341Y-108441659D01*
X90522805Y-108495384D01*
X90524845Y-108497424D01*
X90527243Y-108499026D01*
X90592709Y-108552753D01*
X90667396Y-108592674D01*
X90669795Y-108594277D01*
X90672460Y-108595381D01*
X90747149Y-108635303D01*
X90828190Y-108659886D01*
X90830855Y-108660990D01*
X90833685Y-108661553D01*
X90914726Y-108686136D01*
X90999004Y-108694437D01*
X91001835Y-108695000D01*
X91004721Y-108695000D01*
X91045333Y-108699000D01*
X94167765Y-108699000D01*
X99640506Y-114171742D01*
X99668341Y-114205659D01*
X99803709Y-114316753D01*
X99958149Y-114399303D01*
X100042829Y-114424990D01*
X100125725Y-114450136D01*
X100142325Y-114451771D01*
X100256333Y-114463000D01*
X100256340Y-114463000D01*
X100300000Y-114467300D01*
X100343660Y-114463000D01*
X104892667Y-114463000D01*
X104933279Y-114459000D01*
X104936165Y-114459000D01*
X104938996Y-114458437D01*
X105023274Y-114450136D01*
X105104315Y-114425553D01*
X105107145Y-114424990D01*
X105109810Y-114423886D01*
X105190851Y-114399303D01*
X105265540Y-114359381D01*
X105268205Y-114358277D01*
X105270604Y-114356674D01*
X105345291Y-114316753D01*
X105410757Y-114263026D01*
X105413155Y-114261424D01*
X105415195Y-114259384D01*
X105480659Y-114205659D01*
X105534384Y-114140195D01*
X105536424Y-114138155D01*
X105538026Y-114135757D01*
X105591753Y-114070291D01*
X105631674Y-113995604D01*
X105633277Y-113993205D01*
X105634381Y-113990540D01*
X105674303Y-113915851D01*
X105698886Y-113834810D01*
X105699990Y-113832145D01*
X105700553Y-113829315D01*
X105725136Y-113748274D01*
X105733437Y-113663996D01*
X105734000Y-113661165D01*
X105734000Y-113658279D01*
X105742301Y-113574000D01*
X105734000Y-113489721D01*
X105734000Y-113486835D01*
X105733437Y-113484004D01*
X105725136Y-113399726D01*
X105700553Y-113318685D01*
X105699990Y-113315855D01*
X105698886Y-113313190D01*
X105674303Y-113232149D01*
X105634381Y-113157460D01*
X105633277Y-113154795D01*
X105631674Y-113152396D01*
X105591753Y-113077709D01*
X105538026Y-113012243D01*
X105536424Y-113009845D01*
X105534384Y-113007805D01*
X105480659Y-112942341D01*
X105415195Y-112888616D01*
X105413155Y-112886576D01*
X105410757Y-112884974D01*
X105345291Y-112831247D01*
X105270604Y-112791326D01*
X105268205Y-112789723D01*
X105265540Y-112788619D01*
X105190851Y-112748697D01*
X105109810Y-112724114D01*
X105107145Y-112723010D01*
X105104315Y-112722447D01*
X105023274Y-112697864D01*
X104938996Y-112689563D01*
X104936165Y-112689000D01*
X104933279Y-112689000D01*
X104892667Y-112685000D01*
X100668236Y-112685000D01*
X96543071Y-108559835D01*
X159613000Y-108559835D01*
X159613000Y-108734165D01*
X159647010Y-108905145D01*
X159713723Y-109066205D01*
X159810576Y-109211155D01*
X159933845Y-109334424D01*
X160078795Y-109431277D01*
X160239855Y-109497990D01*
X160410835Y-109532000D01*
X160585165Y-109532000D01*
X160756145Y-109497990D01*
X160917205Y-109431277D01*
X160950545Y-109409000D01*
X162085577Y-109409000D01*
X162123000Y-109412686D01*
X162160423Y-109409000D01*
X162160426Y-109409000D01*
X162272378Y-109397974D01*
X162398221Y-109359800D01*
X162473845Y-109435424D01*
X162618795Y-109532277D01*
X162779855Y-109598990D01*
X162819182Y-109606813D01*
X164049648Y-110837279D01*
X164049653Y-110837283D01*
X166028721Y-112816352D01*
X166052578Y-112845422D01*
X166081648Y-112869279D01*
X166168607Y-112940645D01*
X166235237Y-112976259D01*
X166300985Y-113011402D01*
X166444622Y-113054974D01*
X166556574Y-113066000D01*
X166556577Y-113066000D01*
X166594000Y-113069686D01*
X166631423Y-113066000D01*
X167135955Y-113066000D01*
X167169295Y-113088277D01*
X167330355Y-113154990D01*
X167501335Y-113189000D01*
X167675665Y-113189000D01*
X167846645Y-113154990D01*
X168007705Y-113088277D01*
X168152655Y-112991424D01*
X168275924Y-112868155D01*
X168372777Y-112723205D01*
X168439490Y-112562145D01*
X168473500Y-112391165D01*
X168473500Y-112216835D01*
X168439490Y-112045855D01*
X168372777Y-111884795D01*
X168275924Y-111739845D01*
X168152655Y-111616576D01*
X168007705Y-111519723D01*
X167846645Y-111453010D01*
X167675665Y-111419000D01*
X167501335Y-111419000D01*
X167330355Y-111453010D01*
X167169295Y-111519723D01*
X167135955Y-111542000D01*
X166909631Y-111542000D01*
X165127283Y-109759653D01*
X165127279Y-109759648D01*
X163896813Y-108529182D01*
X163888990Y-108489855D01*
X163822277Y-108328795D01*
X163725424Y-108183845D01*
X163694605Y-108153026D01*
X163872631Y-107975000D01*
X169245700Y-107975000D01*
X169254000Y-108059274D01*
X169254000Y-108062165D01*
X169254564Y-108065001D01*
X169262864Y-108149274D01*
X169287446Y-108230312D01*
X169288010Y-108233145D01*
X169289115Y-108235814D01*
X169313698Y-108316852D01*
X169353617Y-108391534D01*
X169354723Y-108394205D01*
X169356329Y-108396609D01*
X169396248Y-108471291D01*
X169449970Y-108536752D01*
X169451576Y-108539155D01*
X169453620Y-108541199D01*
X169479505Y-108572740D01*
X170506501Y-109599736D01*
X170534341Y-109633659D01*
X170669709Y-109744753D01*
X170824149Y-109827303D01*
X170887787Y-109846607D01*
X170991724Y-109878136D01*
X171024924Y-109881406D01*
X171122333Y-109891000D01*
X171122339Y-109891000D01*
X171165999Y-109895300D01*
X171209659Y-109891000D01*
X175019667Y-109891000D01*
X175060279Y-109887000D01*
X175063165Y-109887000D01*
X175065996Y-109886437D01*
X175150274Y-109878136D01*
X175231315Y-109853553D01*
X175234145Y-109852990D01*
X175236810Y-109851886D01*
X175317851Y-109827303D01*
X175392540Y-109787381D01*
X175395205Y-109786277D01*
X175397604Y-109784674D01*
X175472291Y-109744753D01*
X175537757Y-109691026D01*
X175540155Y-109689424D01*
X175542195Y-109687384D01*
X175607659Y-109633659D01*
X175661384Y-109568195D01*
X175663424Y-109566155D01*
X175665026Y-109563757D01*
X175718753Y-109498291D01*
X175758674Y-109423604D01*
X175760277Y-109421205D01*
X175761381Y-109418540D01*
X175801303Y-109343851D01*
X175825886Y-109262810D01*
X175826990Y-109260145D01*
X175827553Y-109257315D01*
X175852136Y-109176274D01*
X175860437Y-109091996D01*
X175861000Y-109089165D01*
X175861000Y-109086279D01*
X175869301Y-109002000D01*
X175861000Y-108917721D01*
X175861000Y-108914835D01*
X175860437Y-108912004D01*
X175852136Y-108827726D01*
X175827553Y-108746685D01*
X175826990Y-108743855D01*
X175825886Y-108741190D01*
X175801303Y-108660149D01*
X175761381Y-108585460D01*
X175760277Y-108582795D01*
X175758674Y-108580396D01*
X175718753Y-108505709D01*
X175665026Y-108440243D01*
X175663424Y-108437845D01*
X175661384Y-108435805D01*
X175607659Y-108370341D01*
X175542195Y-108316616D01*
X175540155Y-108314576D01*
X175537757Y-108312974D01*
X175472291Y-108259247D01*
X175397604Y-108219326D01*
X175395205Y-108217723D01*
X175392540Y-108216619D01*
X175317851Y-108176697D01*
X175236810Y-108152114D01*
X175234145Y-108151010D01*
X175231315Y-108150447D01*
X175150274Y-108125864D01*
X175065996Y-108117563D01*
X175063165Y-108117000D01*
X175060279Y-108117000D01*
X175019667Y-108113000D01*
X171534235Y-108113000D01*
X170736740Y-107315505D01*
X170705199Y-107289620D01*
X170703155Y-107287576D01*
X170700752Y-107285970D01*
X170635291Y-107232248D01*
X170560609Y-107192329D01*
X170558205Y-107190723D01*
X170555534Y-107189617D01*
X170480852Y-107149698D01*
X170399814Y-107125115D01*
X170397145Y-107124010D01*
X170394312Y-107123446D01*
X170313274Y-107098864D01*
X170229001Y-107090564D01*
X170226165Y-107090000D01*
X170223274Y-107090000D01*
X170139000Y-107081700D01*
X170054726Y-107090000D01*
X170051835Y-107090000D01*
X170048999Y-107090564D01*
X169964726Y-107098864D01*
X169883688Y-107123446D01*
X169880855Y-107124010D01*
X169878186Y-107125115D01*
X169797148Y-107149698D01*
X169722466Y-107189617D01*
X169719795Y-107190723D01*
X169717391Y-107192329D01*
X169642709Y-107232248D01*
X169577247Y-107285971D01*
X169574845Y-107287576D01*
X169572803Y-107289618D01*
X169507341Y-107343341D01*
X169453618Y-107408803D01*
X169451576Y-107410845D01*
X169449971Y-107413247D01*
X169396248Y-107478709D01*
X169356329Y-107553391D01*
X169354723Y-107555795D01*
X169353617Y-107558466D01*
X169313698Y-107633148D01*
X169289115Y-107714186D01*
X169288010Y-107716855D01*
X169287446Y-107719688D01*
X169262864Y-107800726D01*
X169254564Y-107884999D01*
X169254000Y-107887835D01*
X169254000Y-107890726D01*
X169245700Y-107975000D01*
X163872631Y-107975000D01*
X164593352Y-107254279D01*
X164622422Y-107230422D01*
X164717645Y-107114392D01*
X164788402Y-106982015D01*
X164831974Y-106838378D01*
X164843000Y-106726426D01*
X164843000Y-106726424D01*
X164846686Y-106689001D01*
X164843000Y-106651578D01*
X164843000Y-105887545D01*
X164865277Y-105854205D01*
X164931990Y-105693145D01*
X164966000Y-105522165D01*
X164966000Y-105347835D01*
X164931990Y-105176855D01*
X164865277Y-105015795D01*
X164768424Y-104870845D01*
X164645155Y-104747576D01*
X164500205Y-104650723D01*
X164339145Y-104584010D01*
X164168165Y-104550000D01*
X163993835Y-104550000D01*
X163822855Y-104584010D01*
X163661795Y-104650723D01*
X163516845Y-104747576D01*
X163393576Y-104870845D01*
X163296723Y-105015795D01*
X163230010Y-105176855D01*
X163196000Y-105347835D01*
X163196000Y-105522165D01*
X163230010Y-105693145D01*
X163296723Y-105854205D01*
X163319000Y-105887545D01*
X163319001Y-106373368D01*
X161807370Y-107885000D01*
X160950545Y-107885000D01*
X160917205Y-107862723D01*
X160756145Y-107796010D01*
X160585165Y-107762000D01*
X160410835Y-107762000D01*
X160239855Y-107796010D01*
X160078795Y-107862723D01*
X159933845Y-107959576D01*
X159810576Y-108082845D01*
X159713723Y-108227795D01*
X159647010Y-108388855D01*
X159613000Y-108559835D01*
X96543071Y-108559835D01*
X95195499Y-107212264D01*
X95167659Y-107178341D01*
X95032291Y-107067247D01*
X94877851Y-106984697D01*
X94710274Y-106933864D01*
X94579667Y-106921000D01*
X94579660Y-106921000D01*
X94536000Y-106916700D01*
X94492340Y-106921000D01*
X91045333Y-106921000D01*
X91004721Y-106925000D01*
X91001835Y-106925000D01*
X90999004Y-106925563D01*
X90914726Y-106933864D01*
X90833685Y-106958447D01*
X90830855Y-106959010D01*
X90828190Y-106960114D01*
X90747149Y-106984697D01*
X90672460Y-107024619D01*
X90669795Y-107025723D01*
X90667396Y-107027326D01*
X90592709Y-107067247D01*
X90527243Y-107120974D01*
X90524845Y-107122576D01*
X90522805Y-107124616D01*
X90457341Y-107178341D01*
X90403616Y-107243805D01*
X90401576Y-107245845D01*
X90399974Y-107248243D01*
X90346247Y-107313709D01*
X90306326Y-107388396D01*
X90304723Y-107390795D01*
X90303619Y-107393460D01*
X90263697Y-107468149D01*
X90239114Y-107549190D01*
X90238010Y-107551855D01*
X90237447Y-107554685D01*
X90212864Y-107635726D01*
X90204563Y-107720004D01*
X90204000Y-107722835D01*
X90204000Y-107725721D01*
X90195699Y-107810000D01*
X74345000Y-107810000D01*
X74345000Y-98596000D01*
X111607928Y-98596000D01*
X111607928Y-99596000D01*
X111620188Y-99720482D01*
X111656498Y-99840180D01*
X111715463Y-99950494D01*
X111794815Y-100047185D01*
X111891506Y-100126537D01*
X112001820Y-100185502D01*
X112121518Y-100221812D01*
X112246000Y-100234072D01*
X113246000Y-100234072D01*
X113370482Y-100221812D01*
X113490180Y-100185502D01*
X113573226Y-100141112D01*
X113684933Y-100187383D01*
X113904212Y-100231000D01*
X114127788Y-100231000D01*
X114347067Y-100187383D01*
X114553624Y-100101824D01*
X114655658Y-100033647D01*
X114725794Y-100083123D01*
X114929136Y-100173446D01*
X114984126Y-100190119D01*
X115159000Y-100063954D01*
X115159000Y-99223000D01*
X115147974Y-99223000D01*
X115151000Y-99207788D01*
X115151000Y-98984212D01*
X115147974Y-98969000D01*
X115159000Y-98969000D01*
X115159000Y-98128046D01*
X114984126Y-98001881D01*
X114929136Y-98018554D01*
X114725794Y-98108877D01*
X114655658Y-98158353D01*
X114553624Y-98090176D01*
X114347067Y-98004617D01*
X114127788Y-97961000D01*
X113904212Y-97961000D01*
X113684933Y-98004617D01*
X113573226Y-98050888D01*
X113490180Y-98006498D01*
X113370482Y-97970188D01*
X113246000Y-97957928D01*
X112246000Y-97957928D01*
X112121518Y-97970188D01*
X112001820Y-98006498D01*
X111891506Y-98065463D01*
X111794815Y-98144815D01*
X111715463Y-98241506D01*
X111656498Y-98351820D01*
X111620188Y-98471518D01*
X111607928Y-98596000D01*
X74345000Y-98596000D01*
X74345000Y-93395000D01*
X94913766Y-93395000D01*
X94909027Y-93410622D01*
G37*
%TD.AperFunction*%
%TD*%
M02*
