M48
; DRILL file {KiCad (5.1.8)-1} date 02/16/21 03:45:29
; FORMAT={-:-/ absolute / metric / decimal}
; #@! TF.CreationDate,2021-02-16T03:45:29+08:00
; #@! TF.GenerationSoftware,Kicad,Pcbnew,(5.1.8)-1
; #@! TF.FileFunction,Plated,1,2,PTH
FMAT,2
METRIC
T1C0.300
T2C0.650
%
G90
G05
T1
X74.646Y-93.762
X74.646Y-94.762
X74.646Y-95.762
X74.646Y-96.762
X74.646Y-97.762
X74.646Y-98.762
X74.646Y-99.762
X74.646Y-100.762
X74.646Y-101.762
X74.646Y-102.762
X74.646Y-103.762
X74.646Y-104.762
X74.646Y-105.762
X74.646Y-106.762
X74.646Y-107.762
X74.646Y-108.762
X74.646Y-109.762
X74.646Y-110.762
X74.646Y-111.762
X74.646Y-112.762
X74.646Y-113.762
X74.646Y-114.762
X74.646Y-115.762
X74.646Y-116.762
X86.584Y-96.048
X91.089Y-107.81
X95.474Y-105.954
X95.66Y-95.85
X97.66Y-95.85
X99.538Y-100.874
X99.66Y-95.86
X101.65Y-95.85
X104.849Y-113.574
X105.67Y-95.85
X109.698Y-110.526
X110.65Y-97.15
X134.336Y-112.304
X160.498Y-108.647
X163.038Y-108.748
X164.081Y-105.435
X166.086Y-109.256
X167.588Y-112.304
X170.139Y-107.975
X170.912Y-104.176
X174.976Y-109.002
X237.594Y-93.73
X237.594Y-94.73
X237.594Y-95.73
X237.594Y-96.73
X237.594Y-97.73
X237.594Y-98.73
X237.594Y-99.73
X237.594Y-100.73
X237.594Y-101.73
X237.594Y-102.73
X237.594Y-103.73
X237.594Y-104.73
X237.594Y-105.73
X237.594Y-106.73
X237.594Y-107.73
X237.594Y-108.73
X237.594Y-109.73
X237.594Y-110.73
X237.594Y-111.73
X237.594Y-112.73
X237.594Y-113.73
X237.594Y-114.73
X237.594Y-115.73
X237.594Y-116.622
T2
X112.746Y-99.096
X114.016Y-99.096
X115.286Y-99.096
X116.556Y-99.096
X117.826Y-99.096
X119.096Y-99.096
X120.366Y-99.096
X121.636Y-99.096
T0
M30
