%TF.GenerationSoftware,KiCad,Pcbnew,(5.1.8)-1*%
%TF.CreationDate,2021-02-16T03:44:48+08:00*%
%TF.ProjectId,VFD,5646442e-6b69-4636-9164-5f7063625858,rev?*%
%TF.SameCoordinates,Original*%
%TF.FileFunction,Paste,Top*%
%TF.FilePolarity,Positive*%
%FSLAX46Y46*%
G04 Gerber Fmt 4.6, Leading zero omitted, Abs format (unit mm)*
G04 Created by KiCad (PCBNEW (5.1.8)-1) date 2021-02-16 03:44:48*
%MOMM*%
%LPD*%
G01*
G04 APERTURE LIST*
%ADD10R,1.270000X5.000000*%
%ADD11R,4.550000X5.250000*%
%ADD12R,4.600000X1.100000*%
%ADD13R,0.800000X1.900000*%
G04 APERTURE END LIST*
D10*
%TO.C,U3*%
X105660000Y-95850000D03*
X103660000Y-95850000D03*
X101660000Y-95850000D03*
X99660000Y-95850000D03*
X97660000Y-95850000D03*
X95660000Y-95850000D03*
X93660000Y-95850000D03*
X91660000Y-95850000D03*
X231660000Y-95850000D03*
X229660000Y-95850000D03*
X227660000Y-95850000D03*
X89660000Y-95850000D03*
X83660000Y-95850000D03*
X81660000Y-95850000D03*
X79660000Y-95850000D03*
%TD*%
%TO.C,U2*%
G36*
G01*
X168056000Y-104315000D02*
X168056000Y-104015000D01*
G75*
G02*
X168206000Y-103865000I150000J0D01*
G01*
X169856000Y-103865000D01*
G75*
G02*
X170006000Y-104015000I0J-150000D01*
G01*
X170006000Y-104315000D01*
G75*
G02*
X169856000Y-104465000I-150000J0D01*
G01*
X168206000Y-104465000D01*
G75*
G02*
X168056000Y-104315000I0J150000D01*
G01*
G37*
G36*
G01*
X168056000Y-105585000D02*
X168056000Y-105285000D01*
G75*
G02*
X168206000Y-105135000I150000J0D01*
G01*
X169856000Y-105135000D01*
G75*
G02*
X170006000Y-105285000I0J-150000D01*
G01*
X170006000Y-105585000D01*
G75*
G02*
X169856000Y-105735000I-150000J0D01*
G01*
X168206000Y-105735000D01*
G75*
G02*
X168056000Y-105585000I0J150000D01*
G01*
G37*
G36*
G01*
X168056000Y-106855000D02*
X168056000Y-106555000D01*
G75*
G02*
X168206000Y-106405000I150000J0D01*
G01*
X169856000Y-106405000D01*
G75*
G02*
X170006000Y-106555000I0J-150000D01*
G01*
X170006000Y-106855000D01*
G75*
G02*
X169856000Y-107005000I-150000J0D01*
G01*
X168206000Y-107005000D01*
G75*
G02*
X168056000Y-106855000I0J150000D01*
G01*
G37*
G36*
G01*
X168056000Y-108125000D02*
X168056000Y-107825000D01*
G75*
G02*
X168206000Y-107675000I150000J0D01*
G01*
X169856000Y-107675000D01*
G75*
G02*
X170006000Y-107825000I0J-150000D01*
G01*
X170006000Y-108125000D01*
G75*
G02*
X169856000Y-108275000I-150000J0D01*
G01*
X168206000Y-108275000D01*
G75*
G02*
X168056000Y-108125000I0J150000D01*
G01*
G37*
G36*
G01*
X163106000Y-108125000D02*
X163106000Y-107825000D01*
G75*
G02*
X163256000Y-107675000I150000J0D01*
G01*
X164906000Y-107675000D01*
G75*
G02*
X165056000Y-107825000I0J-150000D01*
G01*
X165056000Y-108125000D01*
G75*
G02*
X164906000Y-108275000I-150000J0D01*
G01*
X163256000Y-108275000D01*
G75*
G02*
X163106000Y-108125000I0J150000D01*
G01*
G37*
G36*
G01*
X163106000Y-106855000D02*
X163106000Y-106555000D01*
G75*
G02*
X163256000Y-106405000I150000J0D01*
G01*
X164906000Y-106405000D01*
G75*
G02*
X165056000Y-106555000I0J-150000D01*
G01*
X165056000Y-106855000D01*
G75*
G02*
X164906000Y-107005000I-150000J0D01*
G01*
X163256000Y-107005000D01*
G75*
G02*
X163106000Y-106855000I0J150000D01*
G01*
G37*
G36*
G01*
X163106000Y-105585000D02*
X163106000Y-105285000D01*
G75*
G02*
X163256000Y-105135000I150000J0D01*
G01*
X164906000Y-105135000D01*
G75*
G02*
X165056000Y-105285000I0J-150000D01*
G01*
X165056000Y-105585000D01*
G75*
G02*
X164906000Y-105735000I-150000J0D01*
G01*
X163256000Y-105735000D01*
G75*
G02*
X163106000Y-105585000I0J150000D01*
G01*
G37*
G36*
G01*
X163106000Y-104315000D02*
X163106000Y-104015000D01*
G75*
G02*
X163256000Y-103865000I150000J0D01*
G01*
X164906000Y-103865000D01*
G75*
G02*
X165056000Y-104015000I0J-150000D01*
G01*
X165056000Y-104315000D01*
G75*
G02*
X164906000Y-104465000I-150000J0D01*
G01*
X163256000Y-104465000D01*
G75*
G02*
X163106000Y-104315000I0J150000D01*
G01*
G37*
%TD*%
D11*
%TO.C,U1*%
X84364000Y-106735000D03*
X79514000Y-112285000D03*
X84364000Y-112285000D03*
X79514000Y-106735000D03*
D12*
X91089000Y-106110000D03*
X91089000Y-107810000D03*
X91089000Y-109510000D03*
X91089000Y-111210000D03*
X91089000Y-112910000D03*
%TD*%
%TO.C,R6*%
G36*
G01*
X79784000Y-101161000D02*
X79784000Y-102111000D01*
G75*
G02*
X79534000Y-102361000I-250000J0D01*
G01*
X78859000Y-102361000D01*
G75*
G02*
X78609000Y-102111000I0J250000D01*
G01*
X78609000Y-101161000D01*
G75*
G02*
X78859000Y-100911000I250000J0D01*
G01*
X79534000Y-100911000D01*
G75*
G02*
X79784000Y-101161000I0J-250000D01*
G01*
G37*
G36*
G01*
X81859000Y-101161000D02*
X81859000Y-102111000D01*
G75*
G02*
X81609000Y-102361000I-250000J0D01*
G01*
X80934000Y-102361000D01*
G75*
G02*
X80684000Y-102111000I0J250000D01*
G01*
X80684000Y-101161000D01*
G75*
G02*
X80934000Y-100911000I250000J0D01*
G01*
X81609000Y-100911000D01*
G75*
G02*
X81859000Y-101161000I0J-250000D01*
G01*
G37*
%TD*%
%TO.C,R5*%
G36*
G01*
X86134000Y-101161000D02*
X86134000Y-102111000D01*
G75*
G02*
X85884000Y-102361000I-250000J0D01*
G01*
X85209000Y-102361000D01*
G75*
G02*
X84959000Y-102111000I0J250000D01*
G01*
X84959000Y-101161000D01*
G75*
G02*
X85209000Y-100911000I250000J0D01*
G01*
X85884000Y-100911000D01*
G75*
G02*
X86134000Y-101161000I0J-250000D01*
G01*
G37*
G36*
G01*
X88209000Y-101161000D02*
X88209000Y-102111000D01*
G75*
G02*
X87959000Y-102361000I-250000J0D01*
G01*
X87284000Y-102361000D01*
G75*
G02*
X87034000Y-102111000I0J250000D01*
G01*
X87034000Y-101161000D01*
G75*
G02*
X87284000Y-100911000I250000J0D01*
G01*
X87959000Y-100911000D01*
G75*
G02*
X88209000Y-101161000I0J-250000D01*
G01*
G37*
%TD*%
%TO.C,R4*%
G36*
G01*
X165012000Y-112779000D02*
X165012000Y-111829000D01*
G75*
G02*
X165262000Y-111579000I250000J0D01*
G01*
X165937000Y-111579000D01*
G75*
G02*
X166187000Y-111829000I0J-250000D01*
G01*
X166187000Y-112779000D01*
G75*
G02*
X165937000Y-113029000I-250000J0D01*
G01*
X165262000Y-113029000D01*
G75*
G02*
X165012000Y-112779000I0J250000D01*
G01*
G37*
G36*
G01*
X162937000Y-112779000D02*
X162937000Y-111829000D01*
G75*
G02*
X163187000Y-111579000I250000J0D01*
G01*
X163862000Y-111579000D01*
G75*
G02*
X164112000Y-111829000I0J-250000D01*
G01*
X164112000Y-112779000D01*
G75*
G02*
X163862000Y-113029000I-250000J0D01*
G01*
X163187000Y-113029000D01*
G75*
G02*
X162937000Y-112779000I0J250000D01*
G01*
G37*
%TD*%
%TO.C,R3*%
G36*
G01*
X169076000Y-110493000D02*
X169076000Y-109543000D01*
G75*
G02*
X169326000Y-109293000I250000J0D01*
G01*
X170001000Y-109293000D01*
G75*
G02*
X170251000Y-109543000I0J-250000D01*
G01*
X170251000Y-110493000D01*
G75*
G02*
X170001000Y-110743000I-250000J0D01*
G01*
X169326000Y-110743000D01*
G75*
G02*
X169076000Y-110493000I0J250000D01*
G01*
G37*
G36*
G01*
X167001000Y-110493000D02*
X167001000Y-109543000D01*
G75*
G02*
X167251000Y-109293000I250000J0D01*
G01*
X167926000Y-109293000D01*
G75*
G02*
X168176000Y-109543000I0J-250000D01*
G01*
X168176000Y-110493000D01*
G75*
G02*
X167926000Y-110743000I-250000J0D01*
G01*
X167251000Y-110743000D01*
G75*
G02*
X167001000Y-110493000I0J250000D01*
G01*
G37*
%TD*%
%TO.C,R2*%
G36*
G01*
X161039000Y-105896000D02*
X161989000Y-105896000D01*
G75*
G02*
X162239000Y-106146000I0J-250000D01*
G01*
X162239000Y-106821000D01*
G75*
G02*
X161989000Y-107071000I-250000J0D01*
G01*
X161039000Y-107071000D01*
G75*
G02*
X160789000Y-106821000I0J250000D01*
G01*
X160789000Y-106146000D01*
G75*
G02*
X161039000Y-105896000I250000J0D01*
G01*
G37*
G36*
G01*
X161039000Y-103821000D02*
X161989000Y-103821000D01*
G75*
G02*
X162239000Y-104071000I0J-250000D01*
G01*
X162239000Y-104746000D01*
G75*
G02*
X161989000Y-104996000I-250000J0D01*
G01*
X161039000Y-104996000D01*
G75*
G02*
X160789000Y-104746000I0J250000D01*
G01*
X160789000Y-104071000D01*
G75*
G02*
X161039000Y-103821000I250000J0D01*
G01*
G37*
%TD*%
%TO.C,R1*%
G36*
G01*
X168176000Y-111829000D02*
X168176000Y-112779000D01*
G75*
G02*
X167926000Y-113029000I-250000J0D01*
G01*
X167251000Y-113029000D01*
G75*
G02*
X167001000Y-112779000I0J250000D01*
G01*
X167001000Y-111829000D01*
G75*
G02*
X167251000Y-111579000I250000J0D01*
G01*
X167926000Y-111579000D01*
G75*
G02*
X168176000Y-111829000I0J-250000D01*
G01*
G37*
G36*
G01*
X170251000Y-111829000D02*
X170251000Y-112779000D01*
G75*
G02*
X170001000Y-113029000I-250000J0D01*
G01*
X169326000Y-113029000D01*
G75*
G02*
X169076000Y-112779000I0J250000D01*
G01*
X169076000Y-111829000D01*
G75*
G02*
X169326000Y-111579000I250000J0D01*
G01*
X170001000Y-111579000D01*
G75*
G02*
X170251000Y-111829000I0J-250000D01*
G01*
G37*
%TD*%
D13*
%TO.C,Q2*%
X154910000Y-107962000D03*
X153960000Y-104962000D03*
X155860000Y-104962000D03*
%TD*%
%TO.C,Q1*%
X149830000Y-104962000D03*
X150780000Y-107962000D03*
X148880000Y-107962000D03*
%TD*%
%TO.C,L1*%
G36*
G01*
X99974000Y-112109000D02*
X99974000Y-115039000D01*
G75*
G02*
X99739000Y-115274000I-235000J0D01*
G01*
X97859000Y-115274000D01*
G75*
G02*
X97624000Y-115039000I0J235000D01*
G01*
X97624000Y-112109000D01*
G75*
G02*
X97859000Y-111874000I235000J0D01*
G01*
X99739000Y-111874000D01*
G75*
G02*
X99974000Y-112109000I0J-235000D01*
G01*
G37*
G36*
G01*
X106024000Y-112109000D02*
X106024000Y-115039000D01*
G75*
G02*
X105789000Y-115274000I-235000J0D01*
G01*
X103909000Y-115274000D01*
G75*
G02*
X103674000Y-115039000I0J235000D01*
G01*
X103674000Y-112109000D01*
G75*
G02*
X103909000Y-111874000I235000J0D01*
G01*
X105789000Y-111874000D01*
G75*
G02*
X106024000Y-112109000I0J-235000D01*
G01*
G37*
%TD*%
%TO.C,C8*%
G36*
G01*
X108903000Y-95576500D02*
X107953000Y-95576500D01*
G75*
G02*
X107703000Y-95326500I0J250000D01*
G01*
X107703000Y-94651500D01*
G75*
G02*
X107953000Y-94401500I250000J0D01*
G01*
X108903000Y-94401500D01*
G75*
G02*
X109153000Y-94651500I0J-250000D01*
G01*
X109153000Y-95326500D01*
G75*
G02*
X108903000Y-95576500I-250000J0D01*
G01*
G37*
G36*
G01*
X108903000Y-97651500D02*
X107953000Y-97651500D01*
G75*
G02*
X107703000Y-97401500I0J250000D01*
G01*
X107703000Y-96726500D01*
G75*
G02*
X107953000Y-96476500I250000J0D01*
G01*
X108903000Y-96476500D01*
G75*
G02*
X109153000Y-96726500I0J-250000D01*
G01*
X109153000Y-97401500D01*
G75*
G02*
X108903000Y-97651500I-250000J0D01*
G01*
G37*
%TD*%
%TO.C,C7*%
G36*
G01*
X105130000Y-105210000D02*
X105130000Y-103210000D01*
G75*
G02*
X105380000Y-102960000I250000J0D01*
G01*
X109280000Y-102960000D01*
G75*
G02*
X109530000Y-103210000I0J-250000D01*
G01*
X109530000Y-105210000D01*
G75*
G02*
X109280000Y-105460000I-250000J0D01*
G01*
X105380000Y-105460000D01*
G75*
G02*
X105130000Y-105210000I0J250000D01*
G01*
G37*
G36*
G01*
X96730000Y-105210000D02*
X96730000Y-103210000D01*
G75*
G02*
X96980000Y-102960000I250000J0D01*
G01*
X100880000Y-102960000D01*
G75*
G02*
X101130000Y-103210000I0J-250000D01*
G01*
X101130000Y-105210000D01*
G75*
G02*
X100880000Y-105460000I-250000J0D01*
G01*
X96980000Y-105460000D01*
G75*
G02*
X96730000Y-105210000I0J250000D01*
G01*
G37*
%TD*%
%TO.C,C6*%
G36*
G01*
X93130000Y-102111000D02*
X93130000Y-101161000D01*
G75*
G02*
X93380000Y-100911000I250000J0D01*
G01*
X94055000Y-100911000D01*
G75*
G02*
X94305000Y-101161000I0J-250000D01*
G01*
X94305000Y-102111000D01*
G75*
G02*
X94055000Y-102361000I-250000J0D01*
G01*
X93380000Y-102361000D01*
G75*
G02*
X93130000Y-102111000I0J250000D01*
G01*
G37*
G36*
G01*
X91055000Y-102111000D02*
X91055000Y-101161000D01*
G75*
G02*
X91305000Y-100911000I250000J0D01*
G01*
X91980000Y-100911000D01*
G75*
G02*
X92230000Y-101161000I0J-250000D01*
G01*
X92230000Y-102111000D01*
G75*
G02*
X91980000Y-102361000I-250000J0D01*
G01*
X91305000Y-102361000D01*
G75*
G02*
X91055000Y-102111000I0J250000D01*
G01*
G37*
%TD*%
%TO.C,C5*%
G36*
G01*
X173869000Y-105079000D02*
X172019000Y-105079000D01*
G75*
G02*
X171769000Y-104829000I0J250000D01*
G01*
X171769000Y-103829000D01*
G75*
G02*
X172019000Y-103579000I250000J0D01*
G01*
X173869000Y-103579000D01*
G75*
G02*
X174119000Y-103829000I0J-250000D01*
G01*
X174119000Y-104829000D01*
G75*
G02*
X173869000Y-105079000I-250000J0D01*
G01*
G37*
G36*
G01*
X173869000Y-108329000D02*
X172019000Y-108329000D01*
G75*
G02*
X171769000Y-108079000I0J250000D01*
G01*
X171769000Y-107079000D01*
G75*
G02*
X172019000Y-106829000I250000J0D01*
G01*
X173869000Y-106829000D01*
G75*
G02*
X174119000Y-107079000I0J-250000D01*
G01*
X174119000Y-108079000D01*
G75*
G02*
X173869000Y-108329000I-250000J0D01*
G01*
G37*
%TD*%
%TO.C,C4*%
G36*
G01*
X159573000Y-111147000D02*
X161423000Y-111147000D01*
G75*
G02*
X161673000Y-111397000I0J-250000D01*
G01*
X161673000Y-112397000D01*
G75*
G02*
X161423000Y-112647000I-250000J0D01*
G01*
X159573000Y-112647000D01*
G75*
G02*
X159323000Y-112397000I0J250000D01*
G01*
X159323000Y-111397000D01*
G75*
G02*
X159573000Y-111147000I250000J0D01*
G01*
G37*
G36*
G01*
X159573000Y-107897000D02*
X161423000Y-107897000D01*
G75*
G02*
X161673000Y-108147000I0J-250000D01*
G01*
X161673000Y-109147000D01*
G75*
G02*
X161423000Y-109397000I-250000J0D01*
G01*
X159573000Y-109397000D01*
G75*
G02*
X159323000Y-109147000I0J250000D01*
G01*
X159323000Y-108147000D01*
G75*
G02*
X159573000Y-107897000I250000J0D01*
G01*
G37*
%TD*%
%TO.C,C3*%
G36*
G01*
X113033000Y-104626000D02*
X113983000Y-104626000D01*
G75*
G02*
X114233000Y-104876000I0J-250000D01*
G01*
X114233000Y-105551000D01*
G75*
G02*
X113983000Y-105801000I-250000J0D01*
G01*
X113033000Y-105801000D01*
G75*
G02*
X112783000Y-105551000I0J250000D01*
G01*
X112783000Y-104876000D01*
G75*
G02*
X113033000Y-104626000I250000J0D01*
G01*
G37*
G36*
G01*
X113033000Y-102551000D02*
X113983000Y-102551000D01*
G75*
G02*
X114233000Y-102801000I0J-250000D01*
G01*
X114233000Y-103476000D01*
G75*
G02*
X113983000Y-103726000I-250000J0D01*
G01*
X113033000Y-103726000D01*
G75*
G02*
X112783000Y-103476000I0J250000D01*
G01*
X112783000Y-102801000D01*
G75*
G02*
X113033000Y-102551000I250000J0D01*
G01*
G37*
%TD*%
%TO.C,C2*%
G36*
G01*
X165012000Y-110493000D02*
X165012000Y-109543000D01*
G75*
G02*
X165262000Y-109293000I250000J0D01*
G01*
X165937000Y-109293000D01*
G75*
G02*
X166187000Y-109543000I0J-250000D01*
G01*
X166187000Y-110493000D01*
G75*
G02*
X165937000Y-110743000I-250000J0D01*
G01*
X165262000Y-110743000D01*
G75*
G02*
X165012000Y-110493000I0J250000D01*
G01*
G37*
G36*
G01*
X162937000Y-110493000D02*
X162937000Y-109543000D01*
G75*
G02*
X163187000Y-109293000I250000J0D01*
G01*
X163862000Y-109293000D01*
G75*
G02*
X164112000Y-109543000I0J-250000D01*
G01*
X164112000Y-110493000D01*
G75*
G02*
X163862000Y-110743000I-250000J0D01*
G01*
X163187000Y-110743000D01*
G75*
G02*
X162937000Y-110493000I0J250000D01*
G01*
G37*
%TD*%
%TO.C,C1*%
G36*
G01*
X114025001Y-108959000D02*
X111974999Y-108959000D01*
G75*
G02*
X111725000Y-108709001I0J249999D01*
G01*
X111725000Y-106958999D01*
G75*
G02*
X111974999Y-106709000I249999J0D01*
G01*
X114025001Y-106709000D01*
G75*
G02*
X114275000Y-106958999I0J-249999D01*
G01*
X114275000Y-108709001D01*
G75*
G02*
X114025001Y-108959000I-249999J0D01*
G01*
G37*
G36*
G01*
X114025001Y-115359000D02*
X111974999Y-115359000D01*
G75*
G02*
X111725000Y-115109001I0J249999D01*
G01*
X111725000Y-113358999D01*
G75*
G02*
X111974999Y-113109000I249999J0D01*
G01*
X114025001Y-113109000D01*
G75*
G02*
X114275000Y-113358999I0J-249999D01*
G01*
X114275000Y-115109001D01*
G75*
G02*
X114025001Y-115359000I-249999J0D01*
G01*
G37*
%TD*%
M02*
